<svg xmlns="http://www.w3.org/2000/svg" id="svg6" width="24" height="31.01" fill="none" version="1.1" viewBox="0 0 24 31.01"><path id="path2" fill="#026aa2" stroke="#fff" stroke-width="1" d="M12.062 30.023 12 30.07l-.062-.047a33.186 33.186 0 0 1-1.33-1.068 38.165 38.165 0 0 1-4.044-3.963C3.607 21.612.75 17.017.75 11.923c0-2.962 1.184-5.803 3.293-7.899A11.29 11.29 0 0 1 12 .75a11.29 11.29 0 0 1 7.957 3.274 11.135 11.135 0 0 1 3.293 7.9c0 5.093-2.857 9.689-5.814 13.068a38.165 38.165 0 0 1-4.045 3.963c-.551.466-1.01.826-1.329 1.068z"/><path id="path4" fill="#fff" d="M12.207 25.808a26.311 26.311 0 0 1-3.586-4.07l-.079-.11a11.989 11.989 0 0 0 2.026-4.938c.161-.846.244-1.705.249-2.566a3.188 3.188 0 0 0-.958-1.427 7.667 7.667 0 0 0-1.584-.709c-.093 1.22.256 2.034 1.037 2.413.047.023.075.036.075.046a3.767 3.767 0 0 1-.243 1.487c-.18.474-.454.904-.804 1.264a4.302 4.302 0 0 1-1.795 1.037c-.15-.318-.29-.638-.418-.952A14.46 14.46 0 0 1 5 11.858 7.463 7.463 0 0 1 6.631 7.2a7.185 7.185 0 0 1 4.148-2.554 7.076 7.076 0 0 1 4.794.705 7.308 7.308 0 0 1 3.276 3.644 7.45 7.45 0 0 1 .566 2.866 14.299 14.299 0 0 1-1.127 5.38c-.153.374-.323.756-.507 1.135-.35-.05-3.429-.587-3.429-3.922a.595.595 0 0 1 .079-.111c.949-1.226 1.267-2.425.944-3.567a.67.67 0 0 0-.383-.103c-.328.02-.642.149-.893.365a4.61 4.61 0 0 0-1.174 1.29v1.798c.006.93.103 1.859.288 2.77a11.47 11.47 0 0 0 2.328 5.158 27.039 27.039 0 0 1-3.33 3.756zm-3.8-14.933c.921.13 1.79.514 2.51 1.113 0-.033.064-3.404 0-3.47-.406.041-.8.174-1.15.39-.35.214-.65.505-.878.852a3.091 3.091 0 0 0-.483 1.115Zm3.8-2.398v3.051-.004c.264-.504.6-.966.996-1.37.36-.32.786-.558 1.245-.696-.585-.868-2.224-.98-2.24-.98z"/></svg>