<svg xmlns="http://www.w3.org/2000/svg" viewBox="0 0 24.8 26.1">
	<path d="M13.8 19.5c-.2.4-.8.4-1.2.3s-1.1-.4-.8.2c.3.6 1.3.9 1.5 1.6s.3 1 .7 1 1.1 0 1.2-.7.1-2.6-.2-2.8c-.5-.2-1 0-1.2.4z" />
	<path d="M12.4 9a8.5 8.5 0 00-8.5 8.5c-.1 4.7 3.8 8.6 8.5 8.7 4.7.1 8.6-3.8 8.7-8.5.1-4.7-3.8-8.6-8.5-8.7h-.2zm0 15.3c-3.1 0-5.8-2.1-6.6-5H6c0-.2.6-.7.7-.8s.3.7.8 1 .7-.4.6-.7c-.1-.4-.1-.8.1-1.2.2-.4.3-.8.3-1.2 0-.4-.3-.5-.6-.5s-.6-.5-.7-.8c-.1-.3-.6-.4-.9-.5l.6-1c.3.2.9.3.9.5s.7 1 .9.4c.1-.2.1-.5.1-.7 0-.4.3-1.1.2-1.3l-.5-.5c1.1-.8 2.5-1.2 3.9-1.2 2.2 0 4.3 1 5.6 2.8-.5 0-1 .1-1.1.3s-2.1-.6-2.2-.3c-.2.2-.2.6 0 .8.1.5-.3 1-.9 1.1h-.3c-.7-.2-1.2-.5-1.3-.2s-1.1.3-1.1.6-.3.6 0 .9 1.3 1 1.3 1.5.2.5.6.5.4-.5.6-.8.9-.7 1.1-.4.9-.1 1 .3c.1.3.2.6.2.9-.1.5-.3.6 0 .9.3.3.5.4.7 0 .2-.4.3-.6.4-1 .1-.4-.6-1.1.1-1.1s1-.8 1.4 0 .3 1.7.5 2a7.1 7.1 0 01-6.6 4.7zM11.9 7.7l.9.6c.9-1.4.9-3.2.1-4.6-.5-1-.5-2.1 0-3.1l-1-.6c-.7 1.3-.7 3 0 4.3 0 0 1.1 1.9 0 3.4zM8.8 7.6l.8.8c.9-1.1 1-2.7.1-3.9-.5-.7-.5-1.5 0-2.2l-.9-.7a3 3 0 000 3.6c.5.7.5 1.7 0 2.4zM15.2 7.6l.9.8c.9-1.1.9-2.8 0-3.9-.5-.7-.4-1.6.1-2.2l-1-.7c-.7 1.1-.7 2.5 0 3.6.6.7.6 1.7 0 2.4z" />
</svg>