<svg xmlns="http://www.w3.org/2000/svg" viewBox="0 0 24.8 24.8">
	<path d="M13.8 14.4c-.3.4-.8.5-1.2.4-.3-.1-1.1-.4-.8.2.3.6 1.3.8 1.5 1.5.2.7.3 1 .7 1s1.1 0 1.2-.6.1-2.7-.2-2.8c-.5-.3-1-.2-1.2.3z" />
	<path d="M12.4 3.9a8.5 8.5 0 00-8.5 8.5c-.1 4.7 3.8 8.6 8.5 8.7 4.7.1 8.6-3.8 8.7-8.5.1-4.7-3.8-8.6-8.5-8.7h-.2zm0 15.4c-3.1-.1-5.8-2.1-6.6-5.1.1 0 .2 0 .2-.1l.7-.8c.1-.1.3.8.8 1s.7-.4.6-.6c-.1-.4 0-.9.1-1.3.2-.4.3-.8.3-1.2 0-.4-.3-.5-.6-.5s-.6-.4-.7-.8c-.1-.4-.6-.4-.9-.5l.6-.9c.3.1.9.3.9.5s.7.9.9.4c.1-.3.1-.5.1-.8 0-.3.3-1 .2-1.3l-.5-.4c1.1-.8 2.5-1.3 3.9-1.3 2.2 0 4.3 1 5.6 2.8-.5.1-1 .1-1.1.4s-2.1-.7-2.2-.4c-.2.3-.2.6 0 .9.1.3-.4 1.3-1.2 1.1s-1.2-.6-1.3-.3c-.1.3-1.1.4-1.1.7 0 .3-.3.5 0 .8s1.3 1 1.3 1.6.2.5.6.5.4-.6.6-.8.9-.8 1.1-.5.9 0 1 .3c.1.3.2.7.2 1-.1.5-.3.6 0 .8.3.2.5.5.7 0 .2-.5.3-.5.4-.9.1-.4-.6-1.2.1-1.2s1-.7 1.4 0 .3 1.7.5 2c-1 2.8-3.6 4.8-6.6 4.9z" />
</svg>