<svg xmlns="http://www.w3.org/2000/svg" width="500" height="800" fill="#fff" viewBox="0 0 500 800">
    <path fill="#006268" fill-rule="nonzero" d="M250 800A974 974 0 0139 480C14 416 1 346 0 276 0 125 113 0 250 0c100 0 191 67 230 168 13 35 20 71 20 108-1 70-14 138-39 202a1007 1007 0 01-211 322z"/>
    <path fill="#fff" fill-rule="nonzero" d="M250 687c-35-35-66-74-94-115l-2-4c27-41 45-89 53-139 4-24 7-49 7-73-5-16-14-30-25-40-13-9-27-15-42-20-2 34 7 57 27 68l2 1c1 29-9 57-27 78-13 14-29 24-47 29l-11-27c-19-48-29-100-29-153 0-114 85-208 188-208 76 0 144 50 174 127 9 26 14 53 14 81a433 433 0 01-42 184c-10-1-90-16-90-111l2-3c25-34 33-68 25-101-3-2-7-3-10-2-9 0-17 4-24 10-12 10-22 22-30 36v51c0 27 2 53 7 79 9 53 30 103 61 145-26 39-55 74-87 107zm-99-423c24 4 46 15 65 32 0-1 2-97 0-98-21 2-41 15-53 35-6 9-10 20-12 31-3 12 0 0 0 0zm99-68v87c7-15 16-28 26-39 9-9 21-16 33-20-16-24-59-28-59-28z"/>
</svg>