<svg xmlns="http://www.w3.org/2000/svg" width="500" height="800" style="fill: white;"><path d="M250.88-.01h-.92C222.16.79 0 14.2 0 228.33c0 120.24 69.11 247.07 124.22 329.03l28.7-193 2.31-15.16v-.17A139.25 139.25 0 0 1 105.04 247a4.35 4.35 0 0 1 4.6-4.56c37.08 3 62.43 23.31 78.75 43.66a158.55 158.55 0 0 1 23.23 39.91 18.08 18.08 0 0 1 1.15 9.08l-4.26 41.64-26.23 248.48c-.4 3.58-.28 7.23.23 10.81.4 3.53 1.33 7 2.6 10.36l1.55 3.99 57.3 147.37c1.15 3 5.42 3 6.57 0l58.28-151.36a45.33 45.33 0 0 0 2.7-21.64l-29.28-248.47-12.5-105.66c-.52-4.34.4-8.62 2.71-12.38 2.7-4.57 7.2-11.4 13.14-18.91 16.83-20.94 45.89-47.72 85.77-48.7 1.79 0 3.52 1.03 4.21 2.71 5.18 13.71 8.36 29.21 8.48 47.09.28 42.97-18.8 81.6-49 107.51l2.3 15.16 32.8 202.48C426.05 484.03 500 352.68 500 228.33 500.01 16.18 281.83 1.03 250.88 0zm-26.12 219.38l-4.44 45.22-.57 4.68c-5.02-9.89-12.74-17.93-21.9-24.12-26.24-18.27-60.87-23.47-86.58-24.34a4.36 4.36 0 0 1-4.16-5.1c13.72-74.6 86.81-102.13 120.02-110.92a6.42 6.42 0 0 1 8.01 6.94l-10.38 107.64zm131.72-47.9c-25.48 2.83-64.9 12.2-92.87 42.05L252.83 111.8c-.46-4.51 3.58-8.16 7.96-7 24.73 6.24 70.32 22.38 98.57 59.74a4.34 4.34 0 0 1-2.88 6.94z"/></svg>