<svg xmlns="http://www.w3.org/2000/svg" fill-rule="evenodd" stroke-linejoin="round" stroke-miterlimit="2" clip-rule="evenodd" viewBox="0 0 85 113"><path fill-rule="nonzero" d="M41.05 0c-.5 0-1.02 0-1.52.12l.08-.02-1.26.1c-.3 0-.64-.04-1.02.15l.22-.05c-.2 0-.5 0-.82.15l.19-.05-1.52.1-1.43.2h-.02c-.5.11-.87.2-1.3.2-.7 0-1.38.32-1.88.4h-.01l-.86.2h-.22l-1.16.32.05-.01c-.65.1-1.17.31-1.74.5l-.02.01h-.02c-.39.1-.82.2-1.26.43-.34.17-.46.15-.9.27h-.03l-1.34.52-1.12.5c-4.5 1.65-9.77 5.78-14.06 10.89C3.78 20.05.48 26.14.16 31.78c-.9 9.74 2.2 16.84 7.36 21.63 5.03 4.68 11.96 7.13 18.96 7.9.14.02 0 0 0 0l1.02.09 1 .03-.52-.43-.7-.58a23.34 23.34 0 0 1-8.43-17.12.4.4 0 0 1 .09-.23c.04-.06.08-.07.11-.07h.07a19.05 19.05 0 0 1 13.34 7.3v.02a25.95 25.95 0 0 1 3.93 6.77c.18.44.25.83.17 1.33v.02l-.7 7.2L31 110.9l.44.1c2.82.6 5.75 1 8.69 1.11h2.81c3.84 0 7.77-.4 11.5-1.1l.45-.1-5.35-45.36-2.2-18.3v-.01a2.7 2.7 0 0 1 .42-1.75v-.01a65.16 65.16 0 0 1 2.27-3.26c2.85-3.53 7.84-8 14.52-8.2.07 0 .2.07.22.15v.02a22.28 22.28 0 0 1 1.47 7.92 23.72 23.72 0 0 1-8.32 18.22l-.82.7 1.06.17c3.08.51 6.9-.37 10.4-1.77 3.49-1.4 6.65-3.34 8.39-5.1 9.23-9.31 10.88-24.94 2.34-37.83C76 10.81 67.14 5.6 62.36 3.55l-.01-.01-1.1-.5-1.15-.42-1.12-.3-1.2-.3c-.8-.2-1.6-.4-2.51-.6-1.71-.4-3.42-.7-5.12-.91h-.03c-.53-.1-.93-.11-1.37-.2h-.04C47.87.2 47.07.2 46.31.1L46.28.1h-.03c-.4 0-.87 0-1.18-.08L45.02 0H41.05zm3.78.98c.5.13 1.02.12 1.42.12h-.06c.84.1 1.64.1 2.4.2.53.1.93.1 1.36.19H50c1.68.2 3.36.5 5.05.9.9.2 1.69.4 2.49.6l1.2.3 1.07.29 1.06.38 1.09.5c4.62 1.96 13.45 7.3 16.5 12.55l.01.02c8.31 12.53 6.67 27.63-2.21 36.59-1.57 1.59-4.67 3.5-8.06 4.87-3 1.2-6.14 1.82-8.75 1.67a24.6 24.6 0 0 0 7.81-18.06c0-2.76-.5-5.6-1.53-8.26a1.23 1.23 0 0 0-1.17-.84h-.01c-7.12.2-12.33 4.92-15.28 8.59l-.01.01c-.8 1.1-1.6 2.2-2.31 3.32-.47.7-.7 1.6-.58 2.45l2.2 18.29 5.24 44.41a61.27 61.27 0 0 1-10.85 1.03h-2.78c-2.72-.1-5.43-.49-8.07-1.03l4.75-44.32.7-7.17c.11-.7-.01-1.31-.23-1.86a26.96 26.96 0 0 0-4.07-7.02A20.04 20.04 0 0 0 19.2 42h-.15c-.37 0-.68.19-.88.43-.2.24-.32.55-.32.87v.02a24.21 24.21 0 0 0 7.79 16.84c-6.5-.87-12.84-3.21-17.44-7.48-4.94-4.6-7.93-11.33-7.05-20.81v-.01c.3-5.3 3.48-11.27 7.7-16.29 4.2-5.01 9.44-9.06 13.67-10.6h.02l1.1-.5 1.29-.5c.34-.08.6-.1 1.05-.32.34-.17.7-.26 1.1-.36h.01l.02-.02c.62-.2 1.09-.39 1.62-.48h.03l1.06-.29H30l.95-.21h-.03c.7-.11 1.42-.39 1.72-.39.57 0 1.01-.11 1.5-.21h-.03l1.38-.2 1.58-.1.1-.04c.07-.04.17-.05.37-.05h.12l.1-.05c.03-.01.28-.05.58-.05h.02l1.36-.1.04-.01c.3-.08.78-.09 1.28-.09h3.9l-.12-.02zm-5.64 17.04c-2.89.77-7.52 2.36-11.76 5.4-4.25 3.05-8.1 7.6-9.27 14.19l-.01.05v.14c0 .33.12.63.32.87s.52.43.88.43h-.01c4.34.1 10.26 1 14.73 4.11a11.26 11.26 0 0 1 3.64 4.02l.74 1.4.3-2.38.8-7.8 1.7-18.73v-.5l-.02-.08c-.28-.82-1.15-1.4-2.03-1.12zm5.76.18c-.93 0-1.65.86-1.5 1.78l2.02 18.67.75-.81c4.67-5.06 11.45-6.65 15.79-7.14l.17-.02.08-.08H62.56l.14-.15c.23-.23.38-.52.42-.84.04-.32-.05-.69-.31-.96-5.02-6.51-13-9.32-17.34-10.43l-.06-.02h-.46zm-5.44.77c.3-.1.6.12.74.47v.24l-1.7 18.67-.74 7.3a12.5 12.5 0 0 0-3.17-3.26c-4.74-3.3-10.82-4.19-15.28-4.3-.04 0-.08 0-.13-.06a.4.4 0 0 1-.08-.23v-.04c1.13-6.29 4.77-10.59 8.87-13.53 4.1-2.95 8.65-4.5 11.46-5.25h.03zm5.44.23h.33c4.25 1.1 12 3.88 16.77 10.1l.02.03.03.02c.03.04.04.06.03.14 0 .04-.04.08-.07.13h-.05c-.05.01-.1.06-.16.09-4.25.49-10.74 2.07-15.6 6.81l-1.8-16.69v-.01c-.05-.28.23-.62.5-.62z"/></svg>