<svg xmlns="http://www.w3.org/2000/svg" viewBox="0 0 36.1 51.5"><g data-name="Ebene 2"><path d="M18.6 34v-7.5c3.8-2.4 6.2-7.5 6.2-13.1S22.4 2.4 18.4.1l-.2-.1-.3.1c-4 2.3-6.5 7.5-6.5 13.3s2.4 10.7 6.3 13v7.7c-3 .4-5.4 4.1-5.4 8.7 0 4.8 2.7 8.7 5.9 8.7s5.8-4 5.8-8.7c0-4.6-2.3-8.3-5.3-8.7zm-6.3-20.6c0-5.3 2.2-10 5.8-12.2 3.5 2.1 5.7 6.9 5.7 12.2 0 5-2 9.6-5.2 11.9v-4.6l3.3-3.4-.7-.7-2.6 2.7v-6.4l3.3-3.5-.7-.7-2.6 2.7v-4h-1v7.8l-2.8-2.6-.7.7 3.5 3.3v8.7c-3.3-2.3-5.3-6.9-5.3-11.9zm5.8 37c-2.6 0-4.8-3.4-4.8-7.6s2.2-7.6 4.8-7.6 4.7 3.4 4.7 7.6-2.1 7.6-4.7 7.6z"/><path d="M19.8 31.2h16.3v1H19.8zM0 31.2h16.3v1H0z"/></g></svg>