<svg xmlns="http://www.w3.org/2000/svg" width="27.2" height="39.7" viewBox="0 0 7.2 10.5"><g stroke-width=".5" fill="none" stroke="#fff"><path d="M6.2 282.7l-.2 4.7c-.4-1.2-1.6-1.4-3-1.7.2-2 2.2-3 3.2-3z" stroke-linecap="round" stroke-linejoin="round" paint-order="markers fill stroke" transform="matrix(.52506 0 0 .56964 .1 -159)"/><path d="M4.1 289.4c-.8-1-1.3-2-1.1-2.9 1.5.1 2.4 1 2.9 2.4l-.9 8c1.2.4 2.3.3 3.4 0l-1-9.7c.8-1.7 1.7-2.1 2.8-2 .3.7.7 1.6-.9 4 5 .3 4.6-6 1.9-8-2.5-1.8-6.8-2-9.2.4-2 2-3.6 6.6 2.1 7.8" transform="matrix(.52506 0 0 .56964 .1 -159)"/><path d="M7 282.7l.3 2.8c.5-.8 1.5-.8 2.4-1.1-.6-1-1.5-1.6-2.7-1.7z" stroke-linejoin="round" transform="matrix(.52506 0 0 .56964 .1 -159)"/></g></svg>
