<svg xmlns="http://www.w3.org/2000/svg" viewBox="0 0 45.6 48.4"><g data-name="Ebene 2"><path d="M45.3 0a.5.5 0 0 0-.6.1C37 8.1 26.6 4 26.5 3.8l-4.9-2.3a.6.6 0 0 0-.7.3l-2.6 5.4L4.7 35.4 0 45.3a.6.6 0 0 0 .3.7l4.9 2.3a.5.5 0 0 0 .2 0h.2a.5.5 0 0 0 .3-.2l18-37.5c8.5 5.8 7.4 17.3 7.4 17.4a.6.6 0 0 0 .3.5.5.5 0 0 0 .2.1.6.6 0 0 0 .4-.1A41.2 41.2 0 0 0 45.6.5a.5.5 0 0 0-.3-.5zM5.2 47.1l-4-1.9L5.8 36 19 8.2l1.5.7L23 10zm27.2-20.3c0-3.4-.7-12.5-8.5-17.5l-4.4-2 2.1-4.6 4 1.9-1.8 3.7a.6.6 0 0 0 .2.7.7.7 0 0 0 .2 0 .6.6 0 0 0 .5-.3L26.5 5c1.9.6 8.7 2.5 15-1a50.5 50.5 0 0 1-1.3 5 .6.6 0 0 0 .4.7h.2a.6.6 0 0 0 .5-.4 48.1 48.1 0 0 0 1.6-6.2A16.3 16.3 0 0 0 44.4 2a40.4 40.4 0 0 1-12 24.9z"/><path d="M38.6 14.8a.6.6 0 0 0-.7.2 34.5 34.5 0 0 1-4.7 7.5.6.6 0 0 0 0 .8.5.5 0 0 0 .4 0 .6.6 0 0 0 .4-.1 36 36 0 0 0 4.9-7.7.6.6 0 0 0-.3-.7z"/></g></svg>