<svg xmlns="http://www.w3.org/2000/svg" fill-rule="evenodd" stroke-linejoin="round" stroke-miterlimit="2" clip-rule="evenodd" viewBox="0 0 176 113"><path fill-rule="nonzero" d="M41.05 0c-.5 0-1.02 0-1.52.12l.08-.01-1.26.1c-.3 0-.64-.04-1.02.15l.22-.05c-.2 0-.5-.01-.82.15l.19-.06-1.52.1-1.43.21h-.02c-.5.1-.87.2-1.3.2-.7 0-1.38.32-1.88.4h-.01l-.86.2h-.21l-1.17.31h.05c-.65.1-1.17.3-1.74.5h-.02l-.02.01c-.39.1-.82.2-1.26.43-.34.17-.46.15-.9.26h-.03l-1.34.52-1.11.5c-4.5 1.65-9.78 5.79-14.07 10.9-4.3 5.11-7.6 11.2-7.92 16.84-.9 9.74 2.21 16.85 7.36 21.64 5.03 4.67 11.96 7.12 18.96 7.9.14.02 0 0 0 0l1.02.08 1 .04-.52-.43-.7-.58a23.35 23.35 0 0 1-8.43-17.13c0-.07.04-.17.09-.22.04-.06.08-.07.11-.07h.07a19.05 19.05 0 0 1 13.34 7.3 25.94 25.94 0 0 1 3.93 6.78c.18.45.25.83.17 1.33v.02l-.7 7.21L31 110.9l.44.1c2.82.6 5.75 1 8.69 1.1h2.81c3.84 0 7.77-.4 11.5-1.1l.45-.1-5.35-45.35-2.2-18.31c-.08-.56.09-1.26.42-1.76a64.76 64.76 0 0 1 2.27-3.26c2.85-3.54 7.84-8.01 14.52-8.21.08 0 .2.08.22.15v.02a22.28 22.28 0 0 1 1.47 7.92v.01a23.72 23.72 0 0 1-8.32 18.22l-.82.7 1.06.17c3.08.5 6.9-.37 10.4-1.78 3.49-1.4 6.65-3.33 8.39-5.1 9.23-9.3 10.88-24.94 2.34-37.82C76 10.8 67.14 5.59 62.36 3.55h-.01l-1.1-.5-1.14-.42-1.13-.3-1.2-.3a92 92 0 0 0-2.51-.61c-1.71-.4-3.41-.7-5.12-.9h-.03c-.53-.11-.93-.12-1.37-.2h-.02L48.72.3c-.85-.1-1.65-.1-2.4-.2h-.07c-.4 0-.87-.01-1.18-.09l-.05-.01H41.05zm3.78.99c.5.12 1.02.11 1.42.11h-.06c.84.1 1.64.1 2.4.2.53.1.93.1 1.36.2H50c1.68.2 3.37.5 5.05.9.9.2 1.7.39 2.5.59l1.19.3 1.07.29 1.06.39 1.09.5c4.62 1.96 13.45 7.3 16.5 12.54v.01l.01.02c8.31 12.52 6.67 27.62-2.21 36.58-1.57 1.59-4.67 3.5-8.06 4.87-3 1.2-6.14 1.83-8.75 1.68a24.6 24.6 0 0 0 7.81-18.07c0-2.75-.5-5.6-1.52-8.25a1.23 1.23 0 0 0-1.18-.85h-.01c-7.12.21-12.33 4.93-15.28 8.59l-.01.02c-.8 1.1-1.6 2.2-2.31 3.32-.47.7-.7 1.6-.58 2.44l2.2 18.3 5.24 44.4a61.37 61.37 0 0 1-10.85 1.03h-2.78c-2.72-.09-5.43-.48-8.07-1.03l4.75-44.31.7-7.17c.11-.7-.01-1.32-.23-1.87a26.97 26.97 0 0 0-4.07-7.02A20.04 20.04 0 0 0 19.2 42h-.15c-.37 0-.68.2-.88.44-.2.24-.32.54-.32.87a24.21 24.21 0 0 0 7.79 16.86c-6.5-.88-12.84-3.21-17.44-7.48-4.94-4.6-7.93-11.33-7.05-20.82v-.01c.3-5.3 3.49-11.27 7.7-16.28 4.2-5.01 9.44-9.07 13.67-10.6l.02-.01 1.1-.5 1.29-.5c.34-.08.61-.1 1.05-.32.34-.17.7-.26 1.1-.36h.01l.02-.01c.62-.2 1.09-.4 1.62-.48h.03l1.06-.3H30l.95-.2h-.02c.7-.12 1.41-.4 1.71-.4.57 0 1.01-.1 1.5-.2h-.03l1.38-.2 1.58-.1.1-.05c.07-.04.17-.04.37-.04h.12l.1-.06c.03 0 .28-.04.58-.04h.02l1.36-.1.04-.02c.3-.07.78-.08 1.28-.08h3.9l-.12-.02zM39.2 18.03c-2.89.76-7.52 2.35-11.75 5.4-4.25 3.05-8.1 7.59-9.28 14.19V37.8c0 .33.1.63.3.87.21.25.53.43.9.43h-.02c4.34.1 10.26 1 14.73 4.11a11.26 11.26 0 0 1 3.64 4.03l.74 1.4.3-2.38.8-7.8v-.01l1.7-18.72v-.5l-.02-.08c-.28-.82-1.15-1.41-2.03-1.12zm5.76.17c-.93 0-1.65.87-1.5 1.79l2.02 18.66.75-.8c4.67-5.07 11.45-6.66 15.79-7.15l.17-.02.08-.07H62.56l.15-.15c.23-.23.37-.52.41-.84.04-.32-.05-.7-.31-.96-5.02-6.52-12.99-9.33-17.33-10.44l-.07-.02h-.46zm-5.44.78c.3-.1.6.11.74.47v.23l-1.7 18.68-.74 7.3a12.48 12.48 0 0 0-3.17-3.27c-4.73-3.29-10.82-4.18-15.28-4.29-.04 0-.08 0-.12-.07a.4.4 0 0 1-.09-.22v-.05c1.13-6.28 4.77-10.58 8.87-13.52 4.1-2.95 8.65-4.51 11.46-5.25h.02l.01-.01zm5.44.22h.33c4.25 1.1 12 3.88 16.78 10.1l.02.03.02.03c.03.03.04.05.03.13 0 .04-.04.09-.07.13h-.04c-.06.02-.1.07-.17.1-4.25.48-10.74 2.07-15.6 6.8l-1.8-16.68v-.02c-.05-.28.23-.62.5-.62zM131.84 0c-.5 0-1.03 0-1.53.12l.09-.02-1.26.1c-.3 0-.65-.04-1.03.15l.23-.05c-.2 0-.5 0-.83.15l.2-.05-1.53.1-1.43.2h-.01c-.51.11-.87.2-1.3.2-.7 0-1.38.32-1.88.4h-.02l-.86.2h-.21l-1.16.32.04-.01c-.64.1-1.16.31-1.73.5l-.02.01h-.02c-.4.1-.82.2-1.27.43-.34.17-.46.16-.9.27h-.02l-1.35.52-1.11.5c-4.5 1.65-9.78 5.78-14.07 10.89-4.3 5.12-7.6 11.21-7.92 16.85-.9 9.74 2.21 16.84 7.37 21.63 5.03 4.68 11.96 7.13 18.96 7.9.13.02 0 0 0 0l1.02.09 1 .03-.53-.43-.7-.58a23.35 23.35 0 0 1-8.42-17.12c0-.08.03-.17.08-.23s.08-.07.12-.07h.06a19.05 19.05 0 0 1 13.34 7.3v.02a25.94 25.94 0 0 1 3.93 6.77c.18.44.26.83.17 1.33v.02l-.7 7.2-4.85 45.26.44.09c2.83.6 5.76 1 8.7 1.11h2.8c3.84 0 7.77-.4 11.5-1.1l.46-.1-5.36-45.36-2.2-18.3v-.01c-.08-.56.1-1.26.42-1.75v-.01a64.76 64.76 0 0 1 2.28-3.26c2.85-3.53 7.83-8 14.51-8.2.08 0 .2.07.22.15l.01.02a22.28 22.28 0 0 1 1.47 7.92 23.72 23.72 0 0 1-8.33 18.22l-.82.7 1.07.17c3.07.51 6.89-.37 10.39-1.77 3.5-1.4 6.65-3.33 8.4-5.1 9.23-9.31 10.88-24.94 2.34-37.82-3.32-5.69-12.16-10.92-16.95-12.95v-.01l-1.11-.5-1.14-.42-1.13-.3-1.2-.3a92 92 0 0 0-2.5-.6h-.01c-1.7-.4-3.41-.7-5.12-.9L140.9.5c-.53-.1-.92-.11-1.36-.2h-.04c-.84-.1-1.64-.11-2.4-.2h-.06c-.4 0-.88-.02-1.18-.1h-3.22l-.8-.01zm3.78.98c.49.13 1.02.12 1.42.12h-.06c.84.1 1.64.1 2.4.2.52.1.92.1 1.36.19h.04c1.68.2 3.36.5 5.04.9.9.2 1.7.4 2.5.6l1.19.3 1.07.29 1.07.38 1.08.5h.01c4.62 1.97 13.44 7.3 16.49 12.55v.01l.02.01c8.3 12.53 6.67 27.63-2.22 36.59-1.56 1.59-4.66 3.5-8.06 4.87-3 1.2-6.13 1.82-8.75 1.68a24.6 24.6 0 0 0 7.82-18.07c0-2.76-.51-5.6-1.53-8.26a1.23 1.23 0 0 0-1.17-.84h-.02c-7.11.2-12.32 4.93-15.27 8.59l-.02.02c-.8 1.1-1.6 2.2-2.3 3.31-.01 0 0 0 0 0-.48.71-.7 1.6-.59 2.45l2.2 18.29 5.24 44.42a61.37 61.37 0 0 1-10.84 1.02h-2.79c-2.71-.1-5.42-.49-8.06-1.03l4.74-44.32.7-7.17c.12-.7 0-1.31-.23-1.86a26.97 26.97 0 0 0-4.07-7.02 20.04 20.04 0 0 0-14.05-7.7H109.84c-.37 0-.68.19-.89.43-.2.24-.31.55-.31.87v.02a24.21 24.21 0 0 0 7.78 16.84c-6.5-.87-12.84-3.2-17.43-7.48-4.94-4.6-7.93-11.32-7.06-20.81v-.01c.31-5.3 3.49-11.27 7.7-16.29 4.2-5 9.45-9.06 13.68-10.6h.02l1.1-.5 1.28-.5c.34-.08.61-.1 1.05-.32.34-.17.7-.26 1.1-.36h.02l.01-.01c.62-.21 1.09-.4 1.63-.48h.02l1.06-.3h.2l.94-.2h-.02c.7-.12 1.42-.4 1.72-.4.56 0 1-.11 1.5-.2h-.03l1.38-.2 1.58-.1.09-.05c.08-.04.18-.05.38-.05h.12l.1-.05c.02-.01.28-.05.58-.05h.02l1.36-.1.04-.01c.3-.08.78-.09 1.28-.09h3.9l-.12-.02zm-5.64 17.05c-2.9.76-7.52 2.35-11.76 5.39-4.25 3.05-8.1 7.6-9.28 14.2V37.8c0 .33.11.63.31.87s.52.43.89.43h-.01c4.34.1 10.25 1 14.72 4.11a11.26 11.26 0 0 1 3.64 4.02l.75 1.4.3-2.37.8-7.81 1.7-18.73v-.5l-.03-.08c-.27-.82-1.15-1.4-2.03-1.12zm5.76.17c-.94 0-1.65.86-1.5 1.78l2.02 18.67.74-.81c4.68-5.06 11.45-6.65 15.8-7.14l.17-.02.07-.08H153.34l.15-.15c.23-.23.38-.52.42-.84.04-.32-.05-.69-.32-.96-5.01-6.51-12.99-9.32-17.33-10.43l-.06-.02h-.46zm-5.44.78c.3-.1.6.1.74.46v.24l-1.7 18.68v-.01l-.75 7.3a12.48 12.48 0 0 0-3.17-3.26c-4.73-3.3-10.81-4.19-15.27-4.29h-.01c-.04 0-.07-.01-.12-.07a.4.4 0 0 1-.08-.23v-.04c1.13-6.29 4.77-10.59 8.86-13.53 4.1-2.95 8.65-4.5 11.46-5.24l.02-.01h.02zm5.44.22h.32c4.26 1.1 12.01 3.88 16.78 10.1l.02.03.02.02c.04.04.05.06.04.14 0 .04-.05.08-.07.13h-.05c-.05.01-.1.06-.16.09-4.25.49-10.75 2.08-15.6 6.81l-1.8-16.69-.01-.01c-.05-.28.24-.62.5-.62z"/></svg>